<?xml version="1.0" encoding="utf-8"?>
<!-- Generator: Adobe Illustrator 23.0.1, SVG Export Plug-In . SVG Version: 6.00 Build 0)  -->
<svg version="1.1" id="Layer_1" xmlns="http://www.w3.org/2000/svg" xmlns:xlink="http://www.w3.org/1999/xlink" x="0px" y="0px"
	 viewBox="0 0 181 40" style="enable-background:new 0 0 181 40;" xml:space="preserve">
<style type="text/css">
	.st0{fill:#008FD4;}
	.st1{fill:#727272;}
</style>
<g>
	<g>
		<polygon class="st0" points="35.03,3.94 35.03,0.42 17.68,0.42 17.68,4.3 30.1,4.3 17.32,26.03 17.32,29.55 35.43,29.55 
			35.43,25.67 22.35,25.67 		"/>
		<polygon class="st0" points="40.33,0.42 38.35,0.42 38.35,29.55 40.33,29.55 42.44,29.55 54.37,29.55 54.37,25.67 42.44,25.67 
			42.44,17.03 52.17,17.03 52.17,13.14 42.44,13.14 42.44,4.3 54.37,4.3 54.37,0.42 42.44,0.42 		"/>
		<polygon class="st0" points="126.69,0.42 124.71,0.42 124.71,29.55 126.69,29.55 128.8,29.55 140.73,29.55 140.73,25.67 
			128.8,25.67 128.8,17.03 138.53,17.03 138.53,13.14 128.8,13.14 128.8,4.3 140.73,4.3 140.73,0.42 128.8,0.42 		"/>
		<path class="st0" d="M94.65,1.45c-1.55-0.89-3.34-1.33-5.37-1.33c-2.03,0-3.82,0.44-5.37,1.33c-1.55,0.89-2.75,2.14-3.6,3.77
			c-0.85,1.62-1.27,3.5-1.27,5.64v8.26c0,2.14,0.42,4.02,1.27,5.64c0.85,1.62,2.05,2.88,3.6,3.77c1.55,0.89,3.34,1.33,5.37,1.33
			c2.03,0,3.82-0.44,5.37-1.33c1.55-0.89,2.75-2.14,3.6-3.77c0.85-1.62,1.27-3.5,1.27-5.64v-8.26c0-2.14-0.42-4.02-1.27-5.64
			C97.4,3.59,96.2,2.34,94.65,1.45z M95.33,19.25c0,1.31-0.25,2.46-0.75,3.46c-0.5,1-1.21,1.76-2.12,2.3
			c-0.91,0.54-1.97,0.81-3.18,0.81c-1.2,0-2.26-0.27-3.18-0.81c-0.92-0.54-1.62-1.31-2.12-2.3c-0.5-1-0.75-2.15-0.75-3.46v-8.54
			c0-1.31,0.25-2.46,0.75-3.46c0.5-1,1.21-1.76,2.12-2.3c0.91-0.54,1.97-0.81,3.18-0.81c1.2,0,2.26,0.27,3.18,0.81
			c0.91,0.54,1.62,1.31,2.12,2.3c0.5,1,0.75,2.15,0.75,3.46V19.25z"/>
		<path class="st0" d="M116.43,1.64c-1.66-0.81-3.65-1.22-5.99-1.22h-3.65h-1.32h-2.77v29.14h2.77h1.32h3.63
			c2.34,0,4.34-0.41,6-1.22c1.66-0.81,2.93-2,3.8-3.57c0.87-1.56,1.3-3.45,1.3-5.65v-8.26c0-2.2-0.43-4.09-1.3-5.65
			C119.35,3.64,118.08,2.45,116.43,1.64z M117.33,19.27c0,2.03-0.59,3.6-1.77,4.72c-1.18,1.12-2.85,1.67-5,1.67h-3.77V4.3h3.77
			c2.15,0,3.82,0.56,5,1.67c1.18,1.12,1.77,2.69,1.77,4.72V19.27z"/>
		<path class="st0" d="M72.28,19.62c-0.07,1.11-0.31,2.1-0.72,2.97c-0.49,1.04-1.19,1.84-2.08,2.42c-0.88,0.57-1.91,0.85-3.08,0.86
			c-1.17-0.01-2.19-0.29-3.08-0.86c-0.9-0.57-1.59-1.38-2.08-2.42c-0.49-1.04-0.74-2.24-0.74-3.62v-3.99V11
			c0-1.38,0.25-2.58,0.74-3.62c0.49-1.04,1.19-1.84,2.08-2.41c0.88-0.57,1.91-0.85,3.08-0.86c1.17,0.01,2.19,0.29,3.08,0.86
			c0.9,0.57,1.59,1.38,2.08,2.42c0.41,0.87,0.65,1.86,0.72,2.97h4.19c-0.08-1.9-0.49-3.58-1.25-5.06c-0.84-1.64-2.03-2.92-3.56-3.82
			c-1.52-0.89-3.27-1.34-5.27-1.35c-2,0.01-3.75,0.46-5.27,1.35c-1.53,0.9-2.72,2.17-3.56,3.82c-0.84,1.64-1.26,3.55-1.26,5.71v3.99
			v3.99c0,2.16,0.42,4.07,1.26,5.71c0.84,1.64,2.03,2.92,3.56,3.82c1.52,0.89,3.27,1.34,5.27,1.35c2-0.01,3.75-0.46,5.27-1.35
			c1.53-0.9,2.72-2.17,3.56-3.82c0.76-1.48,1.17-3.16,1.25-5.06H72.28z"/>
		<polygon class="st0" points="146.46,0.47 146.46,4.36 157.02,4.36 159.29,0.47 		"/>
		<g>
			<polygon class="st0" points="150.6,29.55 164.04,29.55 164.04,25.67 152.87,25.67 			"/>
			<polygon class="st1" points="162.28,0.47 145.3,29.55 147.64,29.55 149.91,25.67 164.63,0.47 			"/>
		</g>
		<polygon class="st1" points="10.53,0.42 12.83,0.42 2.65,14.95 12.83,29.54 10.53,29.54 0.35,14.95 		"/>
		<polygon class="st1" points="170.82,0.42 168.53,0.42 178.71,14.95 168.53,29.54 170.82,29.54 181,14.95 		"/>
	</g>
	<g>
		<path class="st0" d="M109.93,35.44c0.29,0.21,0.49,0.49,0.6,0.83v-1.09h0.71v4.28h-0.71v-1.09c-0.11,0.35-0.32,0.63-0.6,0.83
			c-0.29,0.21-0.64,0.31-1.06,0.31c-0.38,0-0.72-0.09-1.01-0.26c-0.3-0.18-0.53-0.43-0.7-0.76c-0.17-0.33-0.25-0.72-0.25-1.16
			c0-0.45,0.08-0.84,0.25-1.17c0.17-0.33,0.4-0.59,0.7-0.76c0.3-0.18,0.63-0.26,1.01-0.26C109.29,35.13,109.64,35.24,109.93,35.44z
			 M108.03,36.18c-0.26,0.28-0.39,0.66-0.39,1.15c0,0.49,0.13,0.87,0.39,1.15c0.26,0.28,0.61,0.42,1.05,0.42
			c0.28,0,0.53-0.06,0.75-0.19c0.22-0.13,0.39-0.31,0.52-0.55c0.12-0.24,0.19-0.51,0.19-0.82c0-0.31-0.06-0.59-0.19-0.83
			c-0.12-0.24-0.3-0.42-0.52-0.55c-0.22-0.13-0.47-0.19-0.75-0.19C108.64,35.76,108.29,35.9,108.03,36.18z"/>
		<path class="st0" d="M114.71,38.86H117v0.6h-3.07V38.9l2.18-3.11h-2.12v-0.6h2.93v0.58L114.71,38.86z"/>
		<path class="st0" d="M117.78,33.62c0.09-0.08,0.2-0.12,0.35-0.12c0.15,0,0.26,0.04,0.35,0.12c0.09,0.08,0.13,0.19,0.13,0.32
			s-0.04,0.24-0.13,0.32c-0.09,0.08-0.21,0.12-0.35,0.12c-0.15,0-0.26-0.04-0.35-0.12c-0.09-0.08-0.13-0.19-0.13-0.32
			S117.69,33.7,117.78,33.62z M118.48,35.19v4.28h-0.71v-4.28H118.48z"/>
		<path class="st0" d="M123.08,35.6c0.31,0.32,0.46,0.78,0.46,1.38v2.48h-0.71v-2.42c0-0.43-0.11-0.75-0.33-0.98
			c-0.22-0.23-0.51-0.34-0.89-0.34c-0.39,0-0.7,0.13-0.93,0.38c-0.23,0.25-0.35,0.62-0.35,1.1v2.27h-0.71v-4.28h0.71v1.01
			c0.11-0.35,0.3-0.62,0.58-0.8c0.28-0.19,0.6-0.28,0.96-0.28C122.37,35.12,122.77,35.28,123.08,35.6z"/>
		<path class="st0" d="M128.53,37.48h-3.42c0.02,0.49,0.15,0.85,0.42,1.1c0.26,0.24,0.58,0.37,0.96,0.37c0.34,0,0.63-0.09,0.86-0.26
			c0.23-0.17,0.37-0.41,0.42-0.7h0.76c-0.05,0.3-0.17,0.56-0.35,0.79c-0.18,0.23-0.41,0.42-0.7,0.55c-0.29,0.13-0.61,0.19-0.97,0.19
			c-0.41,0-0.77-0.09-1.09-0.26c-0.32-0.18-0.56-0.43-0.74-0.76s-0.27-0.72-0.27-1.16c0-0.45,0.09-0.84,0.27-1.17
			c0.18-0.33,0.43-0.59,0.74-0.76c0.32-0.18,0.68-0.26,1.09-0.26c0.42,0,0.78,0.09,1.09,0.26c0.31,0.18,0.55,0.41,0.71,0.71
			c0.16,0.3,0.25,0.62,0.25,0.98C128.56,37.24,128.55,37.37,128.53,37.48z M127.69,36.34c-0.12-0.21-0.28-0.37-0.49-0.48
			c-0.21-0.1-0.43-0.16-0.68-0.16c-0.39,0-0.72,0.12-0.98,0.36c-0.26,0.24-0.41,0.6-0.43,1.06h2.73
			C127.86,36.82,127.81,36.55,127.69,36.34z"/>
		<path class="st0" d="M134.45,35.4c0.32,0.18,0.58,0.43,0.76,0.76c0.18,0.33,0.28,0.72,0.28,1.17c0,0.45-0.09,0.83-0.28,1.16
			c-0.18,0.33-0.44,0.58-0.76,0.76c-0.32,0.18-0.69,0.26-1.1,0.26s-0.78-0.09-1.1-0.26c-0.32-0.18-0.58-0.43-0.77-0.76
			c-0.19-0.33-0.28-0.72-0.28-1.16c0-0.45,0.09-0.84,0.28-1.17c0.19-0.33,0.44-0.59,0.77-0.76c0.32-0.18,0.69-0.26,1.1-0.26
			S134.13,35.22,134.45,35.4z M132.64,35.93c-0.22,0.11-0.39,0.29-0.52,0.53c-0.13,0.24-0.2,0.53-0.2,0.88
			c0,0.34,0.07,0.63,0.2,0.87c0.13,0.24,0.31,0.41,0.52,0.53s0.45,0.17,0.7,0.17c0.25,0,0.49-0.06,0.71-0.17s0.39-0.29,0.52-0.53
			c0.13-0.24,0.2-0.53,0.2-0.87c0-0.35-0.07-0.64-0.2-0.88c-0.13-0.24-0.31-0.41-0.52-0.53c-0.22-0.11-0.45-0.17-0.71-0.17
			C133.09,35.76,132.86,35.81,132.64,35.93z"/>
		<path class="st0" d="M137.52,34.37c-0.15,0.14-0.22,0.37-0.22,0.7v0.12h1.01v0.62h-1.01v3.65h-0.71v-3.65h-0.62v-0.62h0.62v-0.17
			c0-1.02,0.57-1.51,1.72-1.46v0.62C137.93,34.17,137.67,34.24,137.52,34.37z"/>
		<path class="st0" d="M144.25,35.57c0.36,0.29,0.58,0.68,0.66,1.17h-0.75c-0.05-0.31-0.19-0.55-0.42-0.72
			c-0.23-0.17-0.52-0.26-0.86-0.26c-0.25,0-0.48,0.06-0.68,0.17c-0.21,0.11-0.37,0.29-0.49,0.53c-0.12,0.24-0.19,0.53-0.19,0.88
			c0,0.35,0.06,0.64,0.19,0.88c0.12,0.24,0.29,0.41,0.49,0.53c0.2,0.11,0.43,0.17,0.68,0.17c0.34,0,0.63-0.09,0.86-0.26
			c0.23-0.18,0.37-0.42,0.42-0.72h0.75c-0.08,0.49-0.3,0.88-0.66,1.17c-0.36,0.29-0.81,0.43-1.36,0.43c-0.41,0-0.77-0.09-1.09-0.26
			c-0.32-0.18-0.56-0.43-0.74-0.76c-0.18-0.33-0.27-0.72-0.27-1.16c0-0.45,0.09-0.84,0.27-1.17c0.18-0.33,0.43-0.59,0.74-0.76
			c0.32-0.18,0.68-0.26,1.09-0.26C143.44,35.13,143.89,35.28,144.25,35.57z"/>
		<path class="st0" d="M148.88,35.4c0.32,0.18,0.58,0.43,0.76,0.76c0.18,0.33,0.28,0.72,0.28,1.17c0,0.45-0.09,0.83-0.28,1.16
			c-0.18,0.33-0.44,0.58-0.76,0.76c-0.32,0.18-0.69,0.26-1.1,0.26s-0.78-0.09-1.1-0.26c-0.32-0.18-0.58-0.43-0.77-0.76
			c-0.19-0.33-0.28-0.72-0.28-1.16c0-0.45,0.09-0.84,0.28-1.17c0.19-0.33,0.44-0.59,0.77-0.76c0.32-0.18,0.69-0.26,1.1-0.26
			S148.56,35.22,148.88,35.4z M147.08,35.93c-0.22,0.11-0.39,0.29-0.52,0.53c-0.13,0.24-0.2,0.53-0.2,0.88
			c0,0.34,0.07,0.63,0.2,0.87c0.13,0.24,0.31,0.41,0.52,0.53s0.45,0.17,0.7,0.17c0.25,0,0.49-0.06,0.71-0.17s0.39-0.29,0.52-0.53
			c0.13-0.24,0.2-0.53,0.2-0.87c0-0.35-0.07-0.64-0.2-0.88c-0.13-0.24-0.31-0.41-0.52-0.53c-0.22-0.11-0.45-0.17-0.71-0.17
			C147.53,35.76,147.29,35.81,147.08,35.93z"/>
		<path class="st0" d="M153.66,35.44c0.29,0.21,0.49,0.49,0.6,0.83V33.7h0.71v5.76h-0.71v-1.09c-0.11,0.35-0.32,0.63-0.6,0.83
			c-0.29,0.21-0.64,0.31-1.06,0.31c-0.38,0-0.72-0.09-1.01-0.26c-0.3-0.18-0.53-0.43-0.7-0.76c-0.17-0.33-0.25-0.72-0.25-1.16
			c0-0.45,0.08-0.84,0.25-1.17c0.17-0.33,0.4-0.59,0.7-0.76c0.3-0.18,0.63-0.26,1.01-0.26C153.02,35.13,153.37,35.24,153.66,35.44z
			 M151.76,36.18c-0.26,0.28-0.39,0.66-0.39,1.15c0,0.49,0.13,0.87,0.39,1.15c0.26,0.28,0.61,0.42,1.05,0.42
			c0.28,0,0.53-0.06,0.75-0.19c0.22-0.13,0.39-0.31,0.52-0.55c0.12-0.24,0.19-0.51,0.19-0.82c0-0.31-0.06-0.59-0.19-0.83
			c-0.12-0.24-0.3-0.42-0.52-0.55c-0.22-0.13-0.47-0.19-0.75-0.19C152.37,35.76,152.02,35.9,151.76,36.18z"/>
		<path class="st0" d="M160,37.48h-3.42c0.02,0.49,0.15,0.85,0.42,1.1c0.26,0.24,0.58,0.37,0.96,0.37c0.34,0,0.63-0.09,0.86-0.26
			c0.23-0.17,0.37-0.41,0.42-0.7H160c-0.05,0.3-0.17,0.56-0.35,0.79c-0.18,0.23-0.41,0.42-0.7,0.55c-0.29,0.13-0.61,0.19-0.97,0.19
			c-0.41,0-0.77-0.09-1.09-0.26c-0.32-0.18-0.56-0.43-0.74-0.76c-0.18-0.33-0.27-0.72-0.27-1.16c0-0.45,0.09-0.84,0.27-1.17
			c0.18-0.33,0.43-0.59,0.74-0.76c0.32-0.18,0.68-0.26,1.09-0.26c0.42,0,0.78,0.09,1.09,0.26c0.31,0.18,0.55,0.41,0.71,0.71
			c0.16,0.3,0.25,0.62,0.25,0.98C160.03,37.24,160.02,37.37,160,37.48z M159.16,36.34c-0.12-0.21-0.28-0.37-0.49-0.48
			c-0.21-0.1-0.43-0.16-0.68-0.16c-0.39,0-0.72,0.12-0.98,0.36c-0.26,0.24-0.41,0.6-0.43,1.06h2.73
			C159.33,36.82,159.28,36.55,159.16,36.34z"/>
		<path class="st0" d="M163.46,35.51c0.29,0.25,0.47,0.59,0.53,1.02h-0.68c-0.03-0.25-0.14-0.46-0.32-0.63
			c-0.18-0.16-0.42-0.25-0.72-0.25c-0.25,0-0.45,0.06-0.6,0.18c-0.14,0.12-0.21,0.29-0.21,0.49c0,0.16,0.05,0.28,0.14,0.38
			c0.1,0.1,0.22,0.17,0.36,0.22c0.14,0.05,0.34,0.1,0.59,0.16c0.32,0.07,0.57,0.15,0.77,0.22c0.19,0.08,0.36,0.2,0.5,0.36
			c0.14,0.17,0.21,0.39,0.21,0.67c0,0.35-0.13,0.63-0.39,0.85c-0.26,0.22-0.61,0.33-1.05,0.33c-0.51,0-0.92-0.12-1.25-0.37
			c-0.32-0.24-0.51-0.58-0.57-1.02h0.69c0.03,0.26,0.14,0.47,0.34,0.63c0.2,0.16,0.46,0.24,0.79,0.24c0.24,0,0.43-0.06,0.57-0.19
			c0.14-0.12,0.21-0.29,0.21-0.49c0-0.17-0.05-0.3-0.15-0.4c-0.1-0.1-0.22-0.17-0.37-0.23s-0.35-0.11-0.6-0.16
			c-0.32-0.07-0.57-0.15-0.76-0.22c-0.19-0.07-0.35-0.19-0.48-0.35c-0.13-0.16-0.2-0.37-0.2-0.64c0-0.36,0.13-0.65,0.4-0.87
			c0.26-0.22,0.63-0.33,1.08-0.33C162.78,35.13,163.17,35.26,163.46,35.51z"/>
	</g>
</g>
</svg>
