<?xml version="1.0" encoding="utf-8"?>
<!-- Generator: Adobe Illustrator 19.0.0, SVG Export Plug-In . SVG Version: 6.00 Build 0)  -->
<svg version="1.1" id="Layer_1" xmlns="http://www.w3.org/2000/svg" xmlns:xlink="http://www.w3.org/1999/xlink" x="0px" y="0px"
	 viewBox="0 0 342.3 84.3" style="enable-background:new 0 0 342.3 84.3;" xml:space="preserve">
<style type="text/css">
	.st0{fill:#36B2E6;}
	.st1{fill:#077E9B;}
	.st2{fill:#BBBBBB;}
	.st3{fill:#1A1A3A;}
	.st4{fill:#737373;}
	.st5{fill:#606162;}
	.st6{fill:none;stroke:#6E6F6F;stroke-width:0.25;stroke-miterlimit:10;}
</style>
<path id="XMLID_13_" class="st0" d="M26.3,63c0,0-8.7,5.8-17.8-3.3c0,0-4.8-3.5-3.9-14.6l0.1-23.3c0,0,14.9,1.5,15.4,15.7v15.1
	C20.1,52.7,20.6,60,26.3,63"/>
<path id="XMLID_12_" class="st0" d="M7.4,64.5c0,0,10.3,11.6,25.8,5c0,0,10.7-3.5,10.5-16.9l0.1-29c0,0,13.8,0.9,15.3,14.4v12.8
	l-0.2,6.8c0,0,0,2.5-1.5,5.9c-2.9,6.3-9.1,15.8-24.4,16C33,79.5,16.6,81.1,7.4,64.5"/>
<path id="XMLID_11_" class="st1" d="M7.5,64.6c0,0,15.6,19.4,33.1,7.3c0,0,11.7-7,10.5-23.9V25.9c0,0,7.6,3.2,7.9,13.1l-0.2,18.6
	c0,0-1.3,11.3-10.7,17.4c0,0-11.6,9.4-29,1.4C19.2,76.4,11.7,72.6,7.5,64.6"/>
<path id="XMLID_10_" class="st1" d="M26,63.4c0,0-7,4.9-15.5-1.6c0,0-6.5-3.2-6-14.3l0.4-25.6c0,0,5.9,1.3,7.4,2.7l-0.4,24.8
	C12,49.5,10.4,62,26,63.4"/>
<path id="XMLID_9_" class="st2" d="M56.2,22.8c0,0,8.7-5.8,17.8,3.3c0,0,4.8,3.5,3.9,14.6L77.8,64c0,0-14.9-1.5-15.4-15.7V33.2
	C62.4,33.1,61.9,25.8,56.2,22.8"/>
<path id="XMLID_8_" class="st2" d="M75.1,21.3c0,0-10.3-11.6-25.8-5c0,0-10.7,3.5-10.5,16.9l-0.1,29c0,0-13.8-0.9-15.3-14.4V35
	l0.2-6.8c0,0,0-2.5,1.5-5.9C28,16,34.3,6.5,49.5,6.3C49.5,6.3,65.9,4.7,75.1,21.3"/>
<path id="XMLID_7_" class="st3" d="M75,21.2c0,0-15.6-19.4-33.1-7.3c0,0-11.7,7-10.5,23.9v22.1c0,0-7.6-3.2-7.9-13.1l0.1-18.5
	c0,0,1.3-11.3,10.7-17.4c0,0,11.6-9.4,29-1.4C63.3,9.4,70.8,13.1,75,21.2"/>
<path id="XMLID_6_" class="st3" d="M56.2,22.9c0,0,6.9-5,15.6,1.3c0,0,6.5,3.1,6.2,14.2L77.9,64c0,0-5.9-1.2-7.5-2.6l0.1-24.8
	C70.4,36.6,71.9,24.1,56.2,22.9"/>
<g id="XMLID_4_">
	<path id="XMLID_100_" class="st4" d="M91.7,29.6h-3.3V12.9h3.3V29.6z"/>
	<path id="XMLID_102_" class="st4" d="M108.1,29.6h-3.6l-6.4-11v11h-3.3V12.9h3.6l6.4,11v-11h3.3V29.6z"/>
	<path id="XMLID_104_" class="st4" d="M124.6,21.3c0,0.8-0.1,1.5-0.3,2.2c-0.2,0.7-0.5,1.4-0.8,2c-0.4,0.6-0.8,1.2-1.3,1.7
		c-0.5,0.5-1.1,0.9-1.7,1.3c-0.6,0.4-1.3,0.6-2,0.8c-0.7,0.2-1.5,0.3-2.2,0.3h-5V12.9h5c0.8,0,1.5,0.1,2.2,0.3
		c0.7,0.2,1.4,0.5,2,0.8c0.6,0.4,1.2,0.8,1.7,1.3s0.9,1.1,1.3,1.7c0.4,0.6,0.6,1.3,0.8,2C124.5,19.8,124.6,20.5,124.6,21.3z
		 M121.3,21.3c0-0.7-0.1-1.3-0.4-1.9c-0.3-0.6-0.6-1.1-1.1-1.6c-0.5-0.5-1-0.8-1.6-1.1c-0.6-0.3-1.3-0.4-2-0.4h-1.7v10h1.7
		c0.7,0,1.3-0.1,2-0.4c0.6-0.3,1.1-0.6,1.6-1.1c0.5-0.5,0.8-1,1.1-1.6C121.1,22.6,121.3,22,121.3,21.3z"/>
	<path id="XMLID_107_" class="st4" d="M140,23c0,0.9-0.2,1.8-0.5,2.6s-0.8,1.5-1.4,2.1c-0.6,0.6-1.3,1.1-2.1,1.4
		c-0.8,0.3-1.7,0.5-2.6,0.5c-0.9,0-1.8-0.2-2.6-0.5c-0.8-0.3-1.5-0.8-2.1-1.4c-0.6-0.6-1.1-1.3-1.4-2.1s-0.5-1.7-0.5-2.6v-10h3.3v10
		c0,0.5,0.1,0.9,0.3,1.3s0.4,0.8,0.7,1.1c0.3,0.3,0.7,0.5,1.1,0.7s0.8,0.3,1.3,0.3c0.5,0,0.9-0.1,1.3-0.3s0.8-0.4,1.1-0.7
		c0.3-0.3,0.5-0.7,0.7-1.1s0.3-0.8,0.3-1.3v-10h3.3V23z"/>
	<path id="XMLID_109_" class="st4" d="M141.9,17.9c0-0.7,0.1-1.3,0.4-1.9c0.3-0.6,0.6-1.1,1.1-1.6c0.5-0.5,1-0.8,1.6-1.1
		c0.6-0.3,1.3-0.4,1.9-0.4h7.7v3.3h-7.7c-0.2,0-0.5,0-0.7,0.1c-0.2,0.1-0.4,0.2-0.5,0.4s-0.3,0.3-0.4,0.5c-0.1,0.2-0.1,0.4-0.1,0.7
		c0,0.2,0,0.5,0.1,0.7c0.1,0.2,0.2,0.4,0.4,0.5s0.3,0.3,0.5,0.4c0.2,0.1,0.4,0.1,0.7,0.1h3.3c0.7,0,1.3,0.1,2,0.4
		c0.6,0.3,1.1,0.6,1.6,1.1c0.5,0.5,0.8,1,1.1,1.6c0.3,0.6,0.4,1.3,0.4,2c0,0.7-0.1,1.3-0.4,1.9c-0.3,0.6-0.6,1.1-1.1,1.6
		c-0.5,0.5-1,0.8-1.6,1.1c-0.6,0.3-1.3,0.4-2,0.4h-7.4v-3.3h7.4c0.2,0,0.5,0,0.7-0.1c0.2-0.1,0.4-0.2,0.5-0.4s0.3-0.3,0.4-0.5
		c0.1-0.2,0.1-0.4,0.1-0.7c0-0.2,0-0.5-0.1-0.7c-0.1-0.2-0.2-0.4-0.4-0.5s-0.3-0.3-0.5-0.4c-0.2-0.1-0.4-0.1-0.7-0.1h-3.3
		c-0.7,0-1.3-0.1-1.9-0.4c-0.6-0.3-1.1-0.6-1.6-1.1c-0.5-0.5-0.8-1-1.1-1.6C142,19.3,141.9,18.6,141.9,17.9z"/>
	<path id="XMLID_111_" class="st4" d="M164.3,29.6h-3.3V16.3h-5v-3.3h13.4v3.3h-5V29.6z"/>
	<path id="XMLID_113_" class="st4" d="M174.4,29.6H171V12.9h6.7c0.6,0,1.2,0.1,1.8,0.2s1.1,0.4,1.6,0.7c0.5,0.3,0.9,0.6,1.4,1
		s0.8,0.9,1,1.4c0.3,0.5,0.5,1,0.7,1.6s0.2,1.2,0.2,1.8c0,0.6-0.1,1.1-0.2,1.7c-0.1,0.5-0.3,1.1-0.6,1.5c-0.3,0.5-0.6,0.9-1,1.4
		c-0.4,0.4-0.8,0.8-1.3,1.1l1.9,4.4h-3.6l-1.5-3.4l-3.7,0V29.6z M174.4,16.3V23h3.3c0.5,0,0.9-0.1,1.3-0.3s0.8-0.4,1.1-0.7
		s0.5-0.7,0.7-1.1c0.2-0.4,0.3-0.8,0.3-1.3s-0.1-0.9-0.3-1.3c-0.2-0.4-0.4-0.8-0.7-1.1s-0.7-0.5-1.1-0.7c-0.4-0.2-0.8-0.3-1.3-0.3
		H174.4z"/>
	<path id="XMLID_116_" class="st4" d="M189.9,29.6h-3.3V12.9h3.3V29.6z"/>
	<path id="XMLID_118_" class="st4" d="M206.2,29.6h-3.3v-3.3h-6.7v3.3h-3.3v-10c0-0.9,0.2-1.8,0.5-2.6s0.8-1.5,1.4-2.1
		c0.6-0.6,1.3-1.1,2.1-1.4c0.8-0.3,1.7-0.5,2.6-0.5c0.9,0,1.8,0.2,2.6,0.5c0.8,0.3,1.5,0.8,2.1,1.4c0.6,0.6,1.1,1.3,1.4,2.1
		s0.5,1.7,0.5,2.6V29.6z M202.9,23v-3.3c0-0.5-0.1-0.9-0.3-1.3s-0.4-0.8-0.7-1.1c-0.3-0.3-0.7-0.5-1.1-0.7c-0.4-0.2-0.8-0.3-1.3-0.3
		c-0.5,0-0.9,0.1-1.3,0.3c-0.4,0.2-0.8,0.4-1.1,0.7c-0.3,0.3-0.5,0.7-0.7,1.1s-0.3,0.8-0.3,1.3V23H202.9z"/>
	<path id="XMLID_121_" class="st4" d="M220.8,29.6h-11.7V12.9h3.3v13.4h8.4V29.6z"/>
	<path id="XMLID_123_" class="st4" d="M228.2,17.9c0-0.7,0.1-1.3,0.4-1.9c0.3-0.6,0.6-1.1,1.1-1.6c0.5-0.5,1-0.8,1.6-1.1
		c0.6-0.3,1.3-0.4,1.9-0.4h7.7v3.3h-7.7c-0.2,0-0.5,0-0.7,0.1c-0.2,0.1-0.4,0.2-0.5,0.4s-0.3,0.3-0.4,0.5c-0.1,0.2-0.1,0.4-0.1,0.7
		c0,0.2,0,0.5,0.1,0.7c0.1,0.2,0.2,0.4,0.4,0.5s0.3,0.3,0.5,0.4c0.2,0.1,0.4,0.1,0.7,0.1h3.3c0.7,0,1.3,0.1,2,0.4
		c0.6,0.3,1.1,0.6,1.6,1.1c0.5,0.5,0.8,1,1.1,1.6c0.3,0.6,0.4,1.3,0.4,2c0,0.7-0.1,1.3-0.4,1.9c-0.3,0.6-0.6,1.1-1.1,1.6
		c-0.5,0.5-1,0.8-1.6,1.1c-0.6,0.3-1.3,0.4-2,0.4h-7.4v-3.3h7.4c0.2,0,0.5,0,0.7-0.1c0.2-0.1,0.4-0.2,0.5-0.4s0.3-0.3,0.4-0.5
		c0.1-0.2,0.1-0.4,0.1-0.7c0-0.2,0-0.5-0.1-0.7c-0.1-0.2-0.2-0.4-0.4-0.5s-0.3-0.3-0.5-0.4c-0.2-0.1-0.4-0.1-0.7-0.1h-3.3
		c-0.7,0-1.3-0.1-1.9-0.4c-0.6-0.3-1.1-0.6-1.6-1.1c-0.5-0.5-0.8-1-1.1-1.6C228.4,19.3,228.2,18.6,228.2,17.9z"/>
	<path id="XMLID_125_" class="st4" d="M257,23c0,0.9-0.2,1.8-0.5,2.6s-0.8,1.5-1.4,2.1c-0.6,0.6-1.3,1.1-2.1,1.4
		c-0.8,0.3-1.7,0.5-2.6,0.5c-0.9,0-1.8-0.2-2.6-0.5c-0.8-0.3-1.5-0.8-2.1-1.4c-0.6-0.6-1.1-1.3-1.4-2.1s-0.5-1.7-0.5-2.6v-10h3.3v10
		c0,0.5,0.1,0.9,0.3,1.3s0.4,0.8,0.7,1.1c0.3,0.3,0.7,0.5,1.1,0.7s0.8,0.3,1.3,0.3c0.5,0,0.9-0.1,1.3-0.3s0.8-0.4,1.1-0.7
		c0.3-0.3,0.5-0.7,0.7-1.1s0.3-0.8,0.3-1.3v-10h3.3V23z"/>
	<path id="XMLID_127_" class="st4" d="M263.2,29.6h-3.3V12.9h6.7c0.6,0,1.2,0.1,1.8,0.2s1.1,0.4,1.6,0.7c0.5,0.3,0.9,0.6,1.4,1
		s0.8,0.9,1,1.4c0.3,0.5,0.5,1,0.7,1.6s0.2,1.2,0.2,1.8c0,0.9-0.2,1.8-0.5,2.6c-0.3,0.8-0.8,1.5-1.4,2.1c-0.6,0.6-1.3,1.1-2.1,1.4
		c-0.8,0.3-1.7,0.5-2.6,0.5h-3.3V29.6z M263.2,16.3V23h3.3c0.5,0,0.9-0.1,1.3-0.3s0.8-0.4,1.1-0.7s0.5-0.7,0.7-1.1
		c0.2-0.4,0.3-0.8,0.3-1.3s-0.1-0.9-0.3-1.3c-0.2-0.4-0.4-0.8-0.7-1.1s-0.7-0.5-1.1-0.7c-0.4-0.2-0.8-0.3-1.3-0.3H263.2z"/>
	<path id="XMLID_130_" class="st4" d="M278.5,29.6h-3.3V12.9h6.7c0.6,0,1.2,0.1,1.8,0.2s1.1,0.4,1.6,0.7c0.5,0.3,0.9,0.6,1.4,1
		s0.8,0.9,1,1.4c0.3,0.5,0.5,1,0.7,1.6s0.2,1.2,0.2,1.8c0,0.9-0.2,1.8-0.5,2.6c-0.3,0.8-0.8,1.5-1.4,2.1c-0.6,0.6-1.3,1.1-2.1,1.4
		c-0.8,0.3-1.7,0.5-2.6,0.5h-3.3V29.6z M278.5,16.3V23h3.3c0.5,0,0.9-0.1,1.3-0.3s0.8-0.4,1.1-0.7s0.5-0.7,0.7-1.1
		c0.2-0.4,0.3-0.8,0.3-1.3s-0.1-0.9-0.3-1.3c-0.2-0.4-0.4-0.8-0.7-1.1s-0.7-0.5-1.1-0.7c-0.4-0.2-0.8-0.3-1.3-0.3H278.5z"/>
	<path id="XMLID_133_" class="st4" d="M306.9,21.4c0,0.8-0.1,1.6-0.3,2.3s-0.5,1.4-0.9,2.1c-0.4,0.6-0.8,1.2-1.4,1.8
		c-0.5,0.5-1.1,1-1.7,1.4c-0.6,0.4-1.3,0.7-2.1,0.9c-0.7,0.2-1.5,0.3-2.3,0.3s-1.6-0.1-2.3-0.3c-0.7-0.2-1.4-0.5-2.1-0.9
		c-0.6-0.4-1.2-0.8-1.8-1.4c-0.5-0.5-1-1.1-1.4-1.8c-0.4-0.6-0.7-1.3-0.9-2.1c-0.2-0.7-0.3-1.5-0.3-2.3c0-0.8,0.1-1.6,0.3-2.3
		c0.2-0.7,0.5-1.4,0.9-2.1c0.4-0.6,0.8-1.2,1.4-1.7c0.5-0.5,1.1-1,1.8-1.4c0.6-0.4,1.3-0.7,2.1-0.9c0.7-0.2,1.5-0.3,2.3-0.3
		s1.6,0.1,2.3,0.3c0.7,0.2,1.4,0.5,2.1,0.9c0.6,0.4,1.2,0.8,1.7,1.4c0.5,0.5,1,1.1,1.4,1.7c0.4,0.6,0.7,1.3,0.9,2.1
		S306.9,20.6,306.9,21.4z M303.5,21.4c0-0.7-0.1-1.4-0.4-2.1c-0.3-0.6-0.7-1.2-1.1-1.7c-0.5-0.5-1-0.9-1.7-1.1
		c-0.6-0.3-1.3-0.4-2.1-0.4c-0.7,0-1.4,0.1-2.1,0.4c-0.6,0.3-1.2,0.7-1.7,1.1c-0.5,0.5-0.9,1-1.1,1.7c-0.3,0.6-0.4,1.3-0.4,2.1
		s0.1,1.4,0.4,2.1c0.3,0.6,0.7,1.2,1.1,1.7s1,0.9,1.7,1.1c0.6,0.3,1.3,0.4,2.1,0.4c0.7,0,1.4-0.1,2.1-0.4c0.6-0.3,1.2-0.7,1.7-1.1
		s0.9-1,1.1-1.7C303.4,22.8,303.5,22.1,303.5,21.4z"/>
	<path id="XMLID_136_" class="st4" d="M312.4,29.6h-3.3V12.9h6.7c0.6,0,1.2,0.1,1.8,0.2c0.6,0.2,1.1,0.4,1.6,0.7
		c0.5,0.3,0.9,0.6,1.4,1c0.4,0.4,0.8,0.9,1,1.4s0.5,1,0.7,1.6s0.2,1.2,0.2,1.8c0,0.6-0.1,1.1-0.2,1.7c-0.1,0.5-0.3,1.1-0.6,1.5
		c-0.3,0.5-0.6,0.9-1,1.4c-0.4,0.4-0.8,0.8-1.3,1.1l1.9,4.4h-3.6l-1.5-3.4l-3.7,0V29.6z M312.4,16.3V23h3.3c0.5,0,0.9-0.1,1.3-0.3
		c0.4-0.2,0.8-0.4,1.1-0.7s0.5-0.7,0.7-1.1c0.2-0.4,0.3-0.8,0.3-1.3s-0.1-0.9-0.3-1.3c-0.2-0.4-0.4-0.8-0.7-1.1s-0.7-0.5-1.1-0.7
		c-0.4-0.2-0.8-0.3-1.3-0.3H312.4z"/>
	<path id="XMLID_139_" class="st4" d="M331.3,29.6H328V16.3h-5v-3.3h13.4v3.3h-5V29.6z"/>
</g>
<g id="XMLID_65_">
	<path id="XMLID_66_" class="st4" d="M87.3,40.3c0-0.7,0.1-1.3,0.4-1.9c0.3-0.6,0.6-1.1,1.1-1.6c0.5-0.5,1-0.8,1.6-1.1
		c0.6-0.3,1.3-0.4,1.9-0.4h7.7v3.3h-7.7c-0.2,0-0.5,0-0.7,0.1c-0.2,0.1-0.4,0.2-0.5,0.4s-0.3,0.3-0.4,0.5c-0.1,0.2-0.1,0.4-0.1,0.7
		c0,0.2,0,0.5,0.1,0.7c0.1,0.2,0.2,0.4,0.4,0.5s0.3,0.3,0.5,0.4c0.2,0.1,0.4,0.1,0.7,0.1h3.3c0.7,0,1.3,0.1,2,0.4
		c0.6,0.3,1.1,0.6,1.6,1.1c0.5,0.5,0.8,1,1.1,1.6c0.3,0.6,0.4,1.3,0.4,2c0,0.7-0.1,1.3-0.4,1.9c-0.3,0.6-0.6,1.1-1.1,1.6
		c-0.5,0.5-1,0.8-1.6,1.1c-0.6,0.3-1.3,0.4-2,0.4h-7.4v-3.3h7.4c0.2,0,0.5,0,0.7-0.1c0.2-0.1,0.4-0.2,0.5-0.4s0.3-0.3,0.4-0.5
		c0.1-0.2,0.1-0.4,0.1-0.7c0-0.2,0-0.5-0.1-0.7c-0.1-0.2-0.2-0.4-0.4-0.5s-0.3-0.3-0.5-0.4c-0.2-0.1-0.4-0.1-0.7-0.1h-3.3
		c-0.7,0-1.3-0.1-1.9-0.4c-0.6-0.3-1.1-0.6-1.6-1.1c-0.5-0.5-0.8-1-1.1-1.6C87.5,41.6,87.3,41,87.3,40.3z"/>
	<path id="XMLID_68_" class="st4" d="M114.3,52h-11.5V35.3h11.5v3.3h-8.1V42h5.5v3.3h-5.5v3.3h8.1V52z"/>
	<path id="XMLID_70_" class="st4" d="M120,52h-3.3V35.3h6.7c0.6,0,1.2,0.1,1.8,0.2s1.1,0.4,1.6,0.7c0.5,0.3,0.9,0.6,1.4,1
		s0.8,0.9,1,1.4c0.3,0.5,0.5,1,0.7,1.6s0.2,1.2,0.2,1.8c0,0.6-0.1,1.1-0.2,1.7c-0.1,0.5-0.3,1.1-0.6,1.5c-0.3,0.5-0.6,0.9-1,1.4
		c-0.4,0.4-0.8,0.8-1.3,1.1l1.9,4.4h-3.6l-1.5-3.4l-3.7,0V52z M120,38.6v6.7h3.3c0.5,0,0.9-0.1,1.3-0.3s0.8-0.4,1.1-0.7
		s0.5-0.7,0.7-1.1c0.2-0.4,0.3-0.8,0.3-1.3s-0.1-0.9-0.3-1.3c-0.2-0.4-0.4-0.8-0.7-1.1s-0.7-0.5-1.1-0.7c-0.4-0.2-0.8-0.3-1.3-0.3
		H120z"/>
	<path id="XMLID_73_" class="st4" d="M144.9,35.3L139.4,52H136l-5.5-16.7h3.8l3.3,11.1l3.3-11.1H144.9z"/>
	<path id="XMLID_75_" class="st4" d="M149.8,52h-3.3V35.3h3.3V52z"/>
	<path id="XMLID_77_" class="st4" d="M166.2,50.3c-0.8,0.7-1.6,1.2-2.6,1.5c-1,0.4-2,0.5-3,0.5c-0.8,0-1.6-0.1-2.3-0.3
		c-0.7-0.2-1.4-0.5-2.1-0.9c-0.6-0.4-1.2-0.8-1.8-1.4c-0.5-0.5-1-1.1-1.4-1.8c-0.4-0.6-0.7-1.3-0.9-2.1c-0.2-0.7-0.3-1.5-0.3-2.3
		c0-0.8,0.1-1.6,0.3-2.3c0.2-0.7,0.5-1.4,0.9-2.1c0.4-0.6,0.8-1.2,1.4-1.8c0.5-0.5,1.1-1,1.8-1.4c0.6-0.4,1.3-0.7,2.1-0.9
		s1.5-0.3,2.3-0.3c1,0,2,0.2,3,0.5c1,0.4,1.8,0.9,2.6,1.5l-1.8,2.9c-0.5-0.5-1.1-0.9-1.7-1.2c-0.7-0.3-1.4-0.4-2.1-0.4
		c-0.7,0-1.4,0.1-2.1,0.4c-0.6,0.3-1.2,0.7-1.7,1.1c-0.5,0.5-0.9,1-1.1,1.7c-0.3,0.6-0.4,1.3-0.4,2.1s0.1,1.4,0.4,2.1
		c0.3,0.6,0.7,1.2,1.1,1.7s1,0.9,1.7,1.1c0.6,0.3,1.3,0.4,2.1,0.4c0.7,0,1.4-0.1,2.1-0.4s1.2-0.7,1.7-1.2L166.2,50.3z"/>
	<path id="XMLID_79_" class="st4" d="M179.6,52h-11.5V35.3h11.5v3.3h-8.1V42h5.5v3.3h-5.5v3.3h8.1V52z"/>
	<path id="XMLID_81_" class="st4" d="M180.8,40.3c0-0.7,0.1-1.3,0.4-1.9c0.3-0.6,0.6-1.1,1.1-1.6c0.5-0.5,1-0.8,1.6-1.1
		c0.6-0.3,1.3-0.4,1.9-0.4h7.7v3.3h-7.7c-0.2,0-0.5,0-0.7,0.1c-0.2,0.1-0.4,0.2-0.5,0.4s-0.3,0.3-0.4,0.5c-0.1,0.2-0.1,0.4-0.1,0.7
		c0,0.2,0,0.5,0.1,0.7c0.1,0.2,0.2,0.4,0.4,0.5s0.3,0.3,0.5,0.4c0.2,0.1,0.4,0.1,0.7,0.1h3.3c0.7,0,1.3,0.1,2,0.4
		c0.6,0.3,1.1,0.6,1.6,1.1c0.5,0.5,0.8,1,1.1,1.6c0.3,0.6,0.4,1.3,0.4,2c0,0.7-0.1,1.3-0.4,1.9c-0.3,0.6-0.6,1.1-1.1,1.6
		c-0.5,0.5-1,0.8-1.6,1.1c-0.6,0.3-1.3,0.4-2,0.4h-7.4v-3.3h7.4c0.2,0,0.5,0,0.7-0.1c0.2-0.1,0.4-0.2,0.5-0.4s0.3-0.3,0.4-0.5
		c0.1-0.2,0.1-0.4,0.1-0.7c0-0.2,0-0.5-0.1-0.7c-0.1-0.2-0.2-0.4-0.4-0.5s-0.3-0.3-0.5-0.4c-0.2-0.1-0.4-0.1-0.7-0.1h-3.3
		c-0.7,0-1.3-0.1-1.9-0.4c-0.6-0.3-1.1-0.6-1.6-1.1c-0.5-0.5-0.8-1-1.1-1.6C180.9,41.6,180.8,41,180.8,40.3z"/>
	<path id="XMLID_83_" class="st4" d="M216.4,50.3c-0.8,0.7-1.6,1.2-2.6,1.5c-1,0.4-2,0.5-3,0.5c-0.8,0-1.6-0.1-2.3-0.3
		c-0.7-0.2-1.4-0.5-2.1-0.9c-0.6-0.4-1.2-0.8-1.8-1.4c-0.5-0.5-1-1.1-1.4-1.8c-0.4-0.6-0.7-1.3-0.9-2.1c-0.2-0.7-0.3-1.5-0.3-2.3
		c0-0.8,0.1-1.6,0.3-2.3c0.2-0.7,0.5-1.4,0.9-2.1c0.4-0.6,0.8-1.2,1.4-1.8c0.5-0.5,1.1-1,1.8-1.4c0.6-0.4,1.3-0.7,2.1-0.9
		s1.5-0.3,2.3-0.3c1,0,2,0.2,3,0.5c1,0.4,1.8,0.9,2.6,1.5l-1.8,2.9c-0.5-0.5-1.1-0.9-1.7-1.2c-0.7-0.3-1.4-0.4-2.1-0.4
		c-0.7,0-1.4,0.1-2.1,0.4c-0.6,0.3-1.2,0.7-1.7,1.1c-0.5,0.5-0.9,1-1.1,1.7c-0.3,0.6-0.4,1.3-0.4,2.1s0.1,1.4,0.4,2.1
		c0.3,0.6,0.7,1.2,1.1,1.7s1,0.9,1.7,1.1c0.6,0.3,1.3,0.4,2.1,0.4c0.7,0,1.4-0.1,2.1-0.4s1.2-0.7,1.7-1.2L216.4,50.3z"/>
	<path id="XMLID_85_" class="st4" d="M234.2,43.7c0,0.8-0.1,1.6-0.3,2.3s-0.5,1.4-0.9,2.1c-0.4,0.6-0.8,1.2-1.4,1.8
		c-0.5,0.5-1.1,1-1.7,1.4c-0.6,0.4-1.3,0.7-2.1,0.9c-0.7,0.2-1.5,0.3-2.3,0.3s-1.6-0.1-2.3-0.3c-0.7-0.2-1.4-0.5-2.1-0.9
		c-0.6-0.4-1.2-0.8-1.8-1.4c-0.5-0.5-1-1.1-1.4-1.8c-0.4-0.6-0.7-1.3-0.9-2.1c-0.2-0.7-0.3-1.5-0.3-2.3c0-0.8,0.1-1.6,0.3-2.3
		c0.2-0.7,0.5-1.4,0.9-2.1c0.4-0.6,0.8-1.2,1.4-1.7c0.5-0.5,1.1-1,1.8-1.4c0.6-0.4,1.3-0.7,2.1-0.9c0.7-0.2,1.5-0.3,2.3-0.3
		s1.6,0.1,2.3,0.3c0.7,0.2,1.4,0.5,2.1,0.9c0.6,0.4,1.2,0.8,1.7,1.4c0.5,0.5,1,1.1,1.4,1.7c0.4,0.6,0.7,1.3,0.9,2.1
		S234.2,42.9,234.2,43.7z M230.9,43.7c0-0.7-0.1-1.4-0.4-2.1c-0.3-0.6-0.7-1.2-1.1-1.7c-0.5-0.5-1-0.9-1.7-1.1
		c-0.6-0.3-1.3-0.4-2.1-0.4c-0.7,0-1.4,0.1-2.1,0.4c-0.6,0.3-1.2,0.7-1.7,1.1c-0.5,0.5-0.9,1-1.1,1.7c-0.3,0.6-0.4,1.3-0.4,2.1
		s0.1,1.4,0.4,2.1c0.3,0.6,0.7,1.2,1.1,1.7s1,0.9,1.7,1.1c0.6,0.3,1.3,0.4,2.1,0.4c0.7,0,1.4-0.1,2.1-0.4c0.6-0.3,1.2-0.7,1.7-1.1
		s0.9-1,1.1-1.7C230.7,45.1,230.9,44.4,230.9,43.7z"/>
	<path id="XMLID_88_" class="st4" d="M253,52h-3.3V40.1c0-0.2,0-0.5-0.1-0.7c-0.1-0.2-0.2-0.4-0.4-0.5s-0.3-0.3-0.5-0.4
		s-0.4-0.1-0.7-0.1s-0.5,0-0.7,0.1s-0.4,0.2-0.5,0.4s-0.3,0.3-0.4,0.5c-0.1,0.2-0.1,0.4-0.1,0.7V52h-3.3V40.1c0-0.2,0-0.5-0.1-0.7
		c-0.1-0.2-0.2-0.4-0.4-0.5c-0.2-0.2-0.3-0.3-0.5-0.4c-0.2-0.1-0.4-0.1-0.7-0.1s-0.5,0-0.7,0.1c-0.2,0.1-0.4,0.2-0.5,0.4
		c-0.2,0.2-0.3,0.3-0.4,0.5c-0.1,0.2-0.1,0.4-0.1,0.7V52h-3.3V40.1c0-0.7,0.1-1.3,0.4-2c0.3-0.6,0.6-1.1,1.1-1.6
		c0.5-0.5,1-0.8,1.6-1.1c0.6-0.3,1.3-0.4,2-0.4c0.6,0,1.2,0.1,1.8,0.3c0.6,0.2,1.1,0.5,1.5,1c0.5-0.4,1-0.7,1.5-1
		c0.6-0.2,1.2-0.3,1.8-0.3c0.7,0,1.3,0.1,2,0.4c0.6,0.3,1.1,0.6,1.6,1.1c0.5,0.5,0.8,1,1.1,1.6c0.3,0.6,0.4,1.3,0.4,2V52z"/>
	<path id="XMLID_90_" class="st4" d="M259.3,52h-3.3V35.3h6.7c0.6,0,1.2,0.1,1.8,0.2s1.1,0.4,1.6,0.7c0.5,0.3,0.9,0.6,1.4,1
		s0.8,0.9,1,1.4c0.3,0.5,0.5,1,0.7,1.6s0.2,1.2,0.2,1.8c0,0.9-0.2,1.8-0.5,2.6c-0.3,0.8-0.8,1.5-1.4,2.1c-0.6,0.6-1.3,1.1-2.1,1.4
		c-0.8,0.3-1.7,0.5-2.6,0.5h-3.3V52z M259.3,38.6v6.7h3.3c0.5,0,0.9-0.1,1.3-0.3s0.8-0.4,1.1-0.7s0.5-0.7,0.7-1.1
		c0.2-0.4,0.3-0.8,0.3-1.3s-0.1-0.9-0.3-1.3c-0.2-0.4-0.4-0.8-0.7-1.1s-0.7-0.5-1.1-0.7c-0.4-0.2-0.8-0.3-1.3-0.3H259.3z"/>
	<path id="XMLID_93_" class="st4" d="M284.4,52h-3.3v-3.3h-6.7V52h-3.3V42c0-0.9,0.2-1.8,0.5-2.6s0.8-1.5,1.4-2.1
		c0.6-0.6,1.3-1.1,2.1-1.4c0.8-0.3,1.7-0.5,2.6-0.5c0.9,0,1.8,0.2,2.6,0.5c0.8,0.3,1.5,0.8,2.1,1.4c0.6,0.6,1.1,1.3,1.4,2.1
		s0.5,1.7,0.5,2.6V52z M281.1,45.3V42c0-0.5-0.1-0.9-0.3-1.3s-0.4-0.8-0.7-1.1c-0.3-0.3-0.7-0.5-1.1-0.7c-0.4-0.2-0.8-0.3-1.3-0.3
		c-0.5,0-0.9,0.1-1.3,0.3c-0.4,0.2-0.8,0.4-1.1,0.7c-0.3,0.3-0.5,0.7-0.7,1.1s-0.3,0.8-0.3,1.3v3.3H281.1z"/>
	<path id="XMLID_96_" class="st4" d="M300.7,52h-3.6l-6.4-11v11h-3.3V35.3h3.6l6.4,11v-11h3.3V52z"/>
	<path id="XMLID_98_" class="st4" d="M311.3,52H308v-5.2c-0.7-0.2-1.4-0.5-2-0.9c-0.6-0.4-1.1-0.9-1.6-1.5c-0.4-0.6-0.8-1.2-1-1.9
		c-0.2-0.7-0.4-1.4-0.4-2.2v-5h3.3v5c0,0.5,0.1,0.9,0.3,1.3s0.4,0.8,0.7,1.1c0.3,0.3,0.7,0.5,1.1,0.7c0.4,0.2,0.8,0.3,1.3,0.3
		c0.5,0,0.9-0.1,1.3-0.3c0.4-0.2,0.8-0.4,1.1-0.7c0.3-0.3,0.5-0.7,0.7-1.1c0.2-0.4,0.3-0.8,0.3-1.3v-5h3.3v5c0,0.8-0.1,1.5-0.4,2.2
		c-0.2,0.7-0.6,1.3-1,1.9s-1,1.1-1.6,1.5c-0.6,0.4-1.3,0.7-2,0.9V52z"/>
</g>
<g id="XMLID_5_">
	<path id="XMLID_141_" class="st5" d="M93.1,74l-1.6-1.5c-0.3,0.1-0.7,0.2-1.1,0.2c-0.7,0-1.3-0.2-1.8-0.5c-0.5-0.3-1-0.8-1.3-1.3
		s-0.5-1.2-0.5-1.9c0-0.7,0.2-1.4,0.5-1.9c0.3-0.6,0.7-1,1.3-1.3c0.5-0.3,1.2-0.5,1.8-0.5c0.7,0,1.3,0.2,1.8,0.5
		c0.5,0.3,1,0.8,1.3,1.3c0.3,0.6,0.5,1.2,0.5,1.9c0,0.8-0.2,1.4-0.5,2c-0.3,0.6-0.8,1-1.4,1.3l2,1.8H93.1z M87.9,70.5
		c0.2,0.5,0.6,0.8,1,1.1c0.4,0.3,0.9,0.4,1.4,0.4c0.5,0,1-0.1,1.4-0.4c0.4-0.3,0.8-0.6,1-1.1s0.4-1,0.4-1.6c0-0.6-0.1-1.2-0.4-1.6
		s-0.6-0.8-1-1.1c-0.4-0.3-0.9-0.4-1.4-0.4c-0.5,0-1,0.1-1.4,0.4c-0.4,0.3-0.8,0.6-1,1.1s-0.4,1-0.4,1.6
		C87.5,69.5,87.7,70.1,87.9,70.5z"/>
	<path id="XMLID_144_" class="st5" d="M101.3,65.2v4.5c0,0.8,0.2,1.4,0.5,1.7c0.3,0.4,0.8,0.6,1.4,0.6c0.6,0,1.1-0.2,1.4-0.6
		s0.5-0.9,0.5-1.7v-4.5h0.7v4.5c0,1-0.2,1.7-0.7,2.2s-1.1,0.7-1.9,0.7c-0.8,0-1.5-0.2-1.9-0.7s-0.7-1.2-0.7-2.2v-4.5H101.3z"/>
	<path id="XMLID_146_" class="st5" d="M117,70.8h-3.4l-0.7,1.8h-0.8l2.7-7.2h0.8l2.7,7.2h-0.8L117,70.8z M116.8,70.2l-1.5-4l-1.5,4
		H116.8z"/>
	<path id="XMLID_149_" class="st5" d="M125.5,72h2.7v0.6h-3.4v-7.4h0.7V72z"/>
	<path id="XMLID_151_" class="st5" d="M135.3,65.2v7.4h-0.7v-7.4H135.3z"/>
	<path id="XMLID_153_" class="st5" d="M146.5,65.2v0.6h-2.1v6.8h-0.7v-6.8h-2.1v-0.6H146.5z"/>
	<path id="XMLID_155_" class="st5" d="M157.7,65.2l-2.4,4.5v2.9h-0.7v-2.9l-2.4-4.5h0.8l1.9,3.7l1.9-3.7H157.7z"/>
	<path id="XMLID_157_" class="st5" d="M176.4,65.2v0.6h-2.1v6.8h-0.7v-6.8h-2.1v-0.6H176.4z"/>
	<path id="XMLID_159_" class="st5" d="M186.7,72.6l-2-3.1h-1.2v3.1h-0.7v-7.4h2.3c0.8,0,1.4,0.2,1.9,0.6s0.6,0.9,0.6,1.6
		c0,0.6-0.2,1.1-0.5,1.5c-0.3,0.4-0.8,0.6-1.5,0.6l2.1,3.1H186.7z M183.5,69h1.5c1.2,0,1.8-0.5,1.8-1.5c0-1-0.6-1.6-1.8-1.6h-1.5V69
		z"/>
	<path id="XMLID_162_" class="st5" d="M194.7,65.2v4.5c0,0.8,0.2,1.4,0.5,1.7c0.3,0.4,0.8,0.6,1.4,0.6c0.6,0,1.1-0.2,1.4-0.6
		s0.5-0.9,0.5-1.7v-4.5h0.7v4.5c0,1-0.2,1.7-0.7,2.2s-1.1,0.7-1.9,0.7c-0.8,0-1.5-0.2-1.9-0.7s-0.7-1.2-0.7-2.2v-4.5H194.7z"/>
	<path id="XMLID_164_" class="st5" d="M210.4,71.7c-0.2,0.3-0.4,0.5-0.7,0.7c-0.3,0.2-0.7,0.3-1.2,0.3c-0.5,0-0.9-0.1-1.3-0.3
		c-0.4-0.2-0.7-0.4-0.9-0.7s-0.3-0.6-0.4-1h0.8c0,0.2,0.1,0.4,0.2,0.6c0.1,0.2,0.3,0.4,0.6,0.5s0.6,0.2,0.9,0.2
		c0.5,0,0.8-0.1,1.1-0.4c0.2-0.3,0.4-0.6,0.4-1c0-0.3-0.1-0.6-0.2-0.8c-0.2-0.2-0.4-0.4-0.6-0.5c-0.2-0.1-0.6-0.2-1-0.4
		c-0.5-0.1-0.8-0.3-1.1-0.4s-0.5-0.3-0.7-0.6c-0.2-0.3-0.3-0.6-0.3-1.1c0-0.6,0.2-1,0.6-1.4c0.4-0.3,0.9-0.5,1.6-0.5
		c0.7,0,1.2,0.2,1.7,0.5c0.4,0.3,0.6,0.8,0.7,1.3h-0.8c-0.1-0.3-0.2-0.6-0.5-0.8c-0.3-0.2-0.6-0.4-1.1-0.4c-0.4,0-0.8,0.1-1,0.3
		c-0.3,0.2-0.4,0.5-0.4,0.9c0,0.3,0.1,0.6,0.2,0.8s0.4,0.3,0.6,0.4s0.6,0.2,1,0.4c0.5,0.1,0.8,0.3,1.1,0.4c0.3,0.1,0.5,0.3,0.7,0.6
		c0.2,0.3,0.3,0.6,0.3,1.1C210.6,71,210.5,71.4,210.4,71.7z"/>
	<path id="XMLID_166_" class="st5" d="M221.6,65.2v0.6h-2.1v6.8h-0.7v-6.8h-2.1v-0.6H221.6z"/>
	<path id="XMLID_168_" class="st5" d="M240.2,70.8h-3.4l-0.7,1.8h-0.8l2.7-7.2h0.8l2.7,7.2h-0.8L240.2,70.8z M239.9,70.2l-1.5-4
		l-1.5,4H239.9z"/>
	<path id="XMLID_171_" class="st5" d="M252.2,71.7c-0.2,0.3-0.4,0.5-0.7,0.7c-0.3,0.2-0.7,0.3-1.2,0.3c-0.5,0-0.9-0.1-1.3-0.3
		c-0.4-0.2-0.7-0.4-0.9-0.7s-0.3-0.6-0.4-1h0.8c0,0.2,0.1,0.4,0.2,0.6c0.1,0.2,0.3,0.4,0.6,0.5s0.6,0.2,0.9,0.2
		c0.5,0,0.8-0.1,1.1-0.4c0.2-0.3,0.4-0.6,0.4-1c0-0.3-0.1-0.6-0.2-0.8c-0.2-0.2-0.4-0.4-0.6-0.5c-0.2-0.1-0.6-0.2-1-0.4
		c-0.5-0.1-0.8-0.3-1.1-0.4s-0.5-0.3-0.7-0.6c-0.2-0.3-0.3-0.6-0.3-1.1c0-0.6,0.2-1,0.6-1.4c0.4-0.3,0.9-0.5,1.6-0.5
		c0.7,0,1.2,0.2,1.7,0.5c0.4,0.3,0.6,0.8,0.7,1.3h-0.8c-0.1-0.3-0.2-0.6-0.5-0.8c-0.3-0.2-0.6-0.4-1.1-0.4c-0.4,0-0.8,0.1-1,0.3
		c-0.3,0.2-0.4,0.5-0.4,0.9c0,0.3,0.1,0.6,0.2,0.8s0.4,0.3,0.6,0.4s0.6,0.2,1,0.4c0.5,0.1,0.8,0.3,1.1,0.4c0.3,0.1,0.5,0.3,0.7,0.6
		c0.2,0.3,0.3,0.6,0.3,1.1C252.4,71,252.4,71.4,252.2,71.7z"/>
	<path id="XMLID_173_" class="st5" d="M263.4,71.7c-0.2,0.3-0.4,0.5-0.7,0.7c-0.3,0.2-0.7,0.3-1.2,0.3c-0.5,0-0.9-0.1-1.3-0.3
		c-0.4-0.2-0.7-0.4-0.9-0.7s-0.3-0.6-0.4-1h0.8c0,0.2,0.1,0.4,0.2,0.6c0.1,0.2,0.3,0.4,0.6,0.5s0.6,0.2,0.9,0.2
		c0.5,0,0.8-0.1,1.1-0.4c0.2-0.3,0.4-0.6,0.4-1c0-0.3-0.1-0.6-0.2-0.8c-0.2-0.2-0.4-0.4-0.6-0.5c-0.2-0.1-0.6-0.2-1-0.4
		c-0.5-0.1-0.8-0.3-1.1-0.4s-0.5-0.3-0.7-0.6c-0.2-0.3-0.3-0.6-0.3-1.1c0-0.6,0.2-1,0.6-1.4c0.4-0.3,0.9-0.5,1.6-0.5
		c0.7,0,1.2,0.2,1.7,0.5c0.4,0.3,0.6,0.8,0.7,1.3h-0.8c-0.1-0.3-0.2-0.6-0.5-0.8c-0.3-0.2-0.6-0.4-1.1-0.4c-0.4,0-0.8,0.1-1,0.3
		c-0.3,0.2-0.4,0.5-0.4,0.9c0,0.3,0.1,0.6,0.2,0.8s0.4,0.3,0.6,0.4s0.6,0.2,1,0.4c0.5,0.1,0.8,0.3,1.1,0.4c0.3,0.1,0.5,0.3,0.7,0.6
		c0.2,0.3,0.3,0.6,0.3,1.1C263.6,71,263.5,71.4,263.4,71.7z"/>
	<path id="XMLID_175_" class="st5" d="M270.9,65.2v4.5c0,0.8,0.2,1.4,0.5,1.7c0.3,0.4,0.8,0.6,1.4,0.6c0.6,0,1.1-0.2,1.4-0.6
		s0.5-0.9,0.5-1.7v-4.5h0.7v4.5c0,1-0.2,1.7-0.7,2.2s-1.1,0.7-1.9,0.7c-0.8,0-1.5-0.2-1.9-0.7s-0.7-1.2-0.7-2.2v-4.5H270.9z"/>
	<path id="XMLID_177_" class="st5" d="M286.3,72.6l-2-3.1h-1.2v3.1h-0.7v-7.4h2.3c0.8,0,1.4,0.2,1.9,0.6s0.6,0.9,0.6,1.6
		c0,0.6-0.2,1.1-0.5,1.5c-0.3,0.4-0.8,0.6-1.5,0.6l2.1,3.1H286.3z M283.1,69h1.5c1.2,0,1.8-0.5,1.8-1.5c0-1-0.6-1.6-1.8-1.6h-1.5V69
		z"/>
	<path id="XMLID_180_" class="st5" d="M297.9,70.8h-3.4l-0.7,1.8h-0.8l2.7-7.2h0.8l2.7,7.2h-0.8L297.9,70.8z M297.7,70.2l-1.5-4
		l-1.5,4H297.7z"/>
	<path id="XMLID_183_" class="st5" d="M311.2,72.6h-0.7l-4-6.1v6.1h-0.7v-7.3h0.7l4,6.2v-6.2h0.7V72.6z"/>
	<path id="XMLID_185_" class="st5" d="M323.5,65.8c0.6,0.4,1,1,1.2,1.8H324c-0.2-0.5-0.5-0.9-1-1.3c-0.5-0.3-1-0.5-1.7-0.5
		c-0.5,0-1,0.1-1.4,0.4s-0.7,0.6-1,1.1s-0.4,1-0.4,1.6c0,0.6,0.1,1.2,0.4,1.6s0.6,0.8,1,1.1s0.9,0.4,1.4,0.4c0.7,0,1.2-0.2,1.7-0.5
		c0.5-0.3,0.8-0.7,1-1.3h0.8c-0.2,0.8-0.6,1.3-1.2,1.8c-0.6,0.4-1.3,0.6-2.2,0.6c-0.7,0-1.3-0.2-1.8-0.5c-0.5-0.3-0.9-0.8-1.2-1.3
		c-0.3-0.6-0.4-1.2-0.4-1.9c0-0.7,0.1-1.4,0.4-2c0.3-0.6,0.7-1,1.2-1.3c0.5-0.3,1.1-0.5,1.8-0.5C322.2,65.1,323,65.4,323.5,65.8z"/>
	<path id="XMLID_187_" class="st5" d="M332.2,65.8v2.8h2.9v0.6h-2.9V72h3.2v0.6h-3.9v-7.4h3.9v0.6H332.2z"/>
</g>
<line id="XMLID_2_" class="st6" x1="86.8" y1="58.7" x2="337.7" y2="58.7"/>
</svg>
